<svg width="97" height="99" viewBox="0 0 97 99" fill="none" xmlns="http://www.w3.org/2000/svg">
<path d="M62.9105 54.4247C60.1836 51.6899 60.1867 47.2633 62.9176 44.5324L92.775 14.675C95.675 11.775 95.675 7.075 92.775 4.175C89.875 1.275 85.175 1.275 82.275 4.175L52.4247 34.0252C49.6911 36.7589 45.2589 36.7589 42.5253 34.0253L12.675 4.175C9.775 1.275 5.075 1.275 2.175 4.175C-0.725 7.075 -0.725 11.775 2.175 14.675L32.0252 44.5252C34.7589 47.2589 34.7589 51.6911 32.0253 54.4247L2.175 84.275C-0.725 87.175 -0.725 91.875 2.175 94.775C3.575 96.175 5.475 96.975 7.375 96.975C9.275 96.975 11.175 96.275 12.575 94.775L42.5253 64.9106C45.2601 62.1836 49.6868 62.1868 52.4177 64.9177L82.275 94.775C83.675 96.175 85.575 96.975 87.475 96.975C89.375 96.975 91.275 96.275 92.675 94.775C95.575 91.875 95.575 87.175 92.675 84.275L62.9105 54.4247Z" stroke="#FA7EA8" stroke-width="3"/>
</svg>
