<svg width="1033" height="1024" viewBox="0 0 1033 1024" fill="none" xmlns="http://www.w3.org/2000/svg">
<path d="M517.859 1004.77C513.227 1004.73 508.541 1004.7 503.939 1004.55L504.082 999.746C508.636 999.892 513.293 999.958 517.86 999.962C522.447 999.962 527.122 999.885 531.759 999.73L531.908 1004.53C527.22 1004.69 522.495 1004.77 517.859 1004.77ZM476.031 1002.74C466.788 1001.83 457.454 1000.61 448.289 999.092L449.021 994.345C458.089 995.843 467.323 997.059 476.468 997.955L476.031 1002.74ZM559.814 1002.69L559.372 997.904C568.513 996.997 577.746 995.77 586.814 994.258L587.553 999.005C578.387 1000.53 569.054 1001.77 559.814 1002.69ZM420.828 993.606C411.779 991.481 402.673 989.021 393.767 986.296L395.083 981.685C403.894 984.382 412.902 986.814 421.855 988.915L420.828 993.606ZM615.006 993.486L613.974 988.8C622.948 986.681 631.953 984.237 640.739 981.535L642.061 986.145C633.18 988.875 624.077 991.345 615.006 993.486ZM367.213 977.197C358.481 973.876 349.744 970.218 341.245 966.324L343.124 961.93C351.531 965.779 360.174 969.399 368.813 972.685L367.213 977.197ZM668.601 977.009L666.996 972.497C675.582 969.223 684.195 965.605 692.595 961.746L694.479 966.141C685.986 970.042 677.28 973.699 668.601 977.009ZM316.017 953.742C307.8 949.3 299.593 944.512 291.628 939.512L294.036 935.399C301.917 940.35 310.035 945.084 318.165 949.479L316.017 953.742ZM719.637 953.566L717.488 949.305C725.599 944.913 733.698 940.178 741.558 935.232L743.97 939.34C736.024 944.34 727.838 949.124 719.637 953.566ZM268.177 923.695C260.565 918.195 253.022 912.361 245.754 906.361L248.649 902.601C255.84 908.54 263.304 914.31 270.833 919.751L268.177 923.695ZM767.383 923.523L764.721 919.584C772.25 914.136 779.704 908.366 786.876 902.434L789.773 906.19C782.524 912.185 774.991 918.016 767.383 923.523ZM224.448 887.58C217.568 881.113 210.804 874.336 204.346 867.441L207.679 864.094C214.068 870.915 220.761 877.62 227.57 884.021L224.448 887.58ZM811.058 887.413L807.934 883.854C814.726 877.467 821.413 870.758 827.813 863.92L831.145 867.263C824.68 874.176 817.92 880.955 811.058 887.413ZM185.526 846.023C179.502 838.709 173.628 831.101 168.066 823.411L171.783 820.528C177.286 828.138 183.097 835.667 189.058 842.901L185.526 846.023ZM849.961 845.824L846.429 842.707C852.389 835.465 858.201 827.927 863.703 820.307L867.421 823.185C861.86 830.887 855.986 838.505 849.961 845.824ZM152.038 799.692C146.959 791.638 142.071 783.322 137.51 774.972L141.552 772.606C146.063 780.866 150.9 789.096 155.925 797.063L152.038 799.692ZM883.455 799.432L879.565 796.807C884.593 788.824 889.428 780.58 893.942 772.3L897.986 774.662C893.425 783.033 888.535 791.366 883.455 799.432ZM124.545 749.343C120.506 740.69 116.689 731.798 113.203 722.911L117.503 721.103C120.953 729.892 124.729 738.69 128.725 747.249L124.545 749.343ZM910.955 748.967L906.775 746.878C910.77 738.305 914.546 729.483 918.001 720.652L922.304 722.455C918.813 731.383 914.995 740.303 910.955 748.967ZM103.511 695.744C100.575 686.613 97.8916 677.272 95.5363 667.981L100.027 666.761C102.356 675.951 105.011 685.192 107.916 694.223L103.511 695.744ZM931.977 695.235L927.57 693.723C930.458 684.702 933.103 675.458 935.427 666.249L939.92 667.465C937.569 676.775 934.897 686.117 931.977 695.235ZM89.3079 639.751C87.534 630.319 86.0333 620.702 84.8465 611.164L89.4507 610.549C90.6249 619.986 92.1098 629.5 93.8644 638.831L89.3079 639.751ZM946.116 639.223L941.559 638.312C943.3 628.984 944.776 619.465 945.939 610.021L950.545 610.631C949.369 620.176 947.877 629.796 946.116 639.223ZM82.1624 582.343C81.5674 572.761 81.2602 563.021 81.25 553.394L85.8927 553.389C85.9029 562.915 86.2067 572.551 86.7961 582.033L82.1624 582.343ZM953.198 581.805L948.564 581.5C949.142 572.028 949.434 562.392 949.434 552.864L949.432 551.81H954.075L954.077 552.847C954.077 562.493 953.78 572.23 953.198 581.805ZM86.7315 524.751L82.0978 524.455C82.6735 514.855 83.5544 505.155 84.7162 495.624L89.3226 496.225C88.1721 505.657 87.3005 515.253 86.7315 524.751ZM948.5 523.174C947.897 513.671 946.993 504.077 945.812 494.66L950.414 494.04C951.608 503.559 952.524 513.253 953.134 522.859L948.5 523.174ZM93.6707 467.934L89.1118 467.026C90.863 457.59 92.9374 448.087 95.2745 438.779L99.7676 439.988C97.4553 449.197 95.4037 458.599 93.6707 467.934ZM941.362 466.384C939.594 457.043 937.508 447.649 935.169 438.46L939.657 437.235C942.024 446.522 944.13 456.018 945.918 465.459L941.362 466.384ZM107.595 412.507L103.186 411C106.1 401.865 109.344 392.702 112.83 383.764L117.135 385.564C113.687 394.406 110.478 403.471 107.595 412.507ZM927.252 411.008C924.337 401.985 921.102 392.946 917.636 384.142L921.934 382.327C925.439 391.226 928.71 400.363 931.655 409.482L927.252 411.008ZM128.333 359.32L124.149 357.236C128.176 348.567 132.531 339.917 137.091 331.527L141.137 333.886C136.625 342.185 132.317 350.743 128.333 359.32ZM906.385 358.009C902.386 349.473 898.063 340.947 893.529 332.669L897.569 330.298C902.15 338.664 906.521 347.283 910.561 355.913L906.385 358.009ZM155.487 309.359L151.594 306.737C156.658 298.678 162.043 290.68 167.599 282.965L171.321 285.838C165.824 293.472 160.496 301.385 155.487 309.359ZM879.127 308.228C874.104 300.283 868.761 292.394 863.243 284.782L866.956 281.897C872.533 289.591 877.935 297.565 883.013 305.594L879.127 308.228ZM188.571 263.419L185.034 260.306C191.047 252.981 197.369 245.761 203.823 238.846L207.162 242.187C200.776 249.028 194.521 256.173 188.571 263.419ZM845.942 262.428C839.973 255.202 833.698 248.079 827.296 241.257L830.624 237.907C837.096 244.8 843.437 252 849.469 259.304L845.942 262.428ZM227.017 222.225L223.891 218.671C230.761 212.191 237.915 205.864 245.154 199.866L248.055 203.62C240.893 209.554 233.814 215.815 227.017 222.225ZM807.381 221.353C800.573 214.972 793.475 208.73 786.28 202.803L789.173 199.04C796.443 205.032 803.618 211.339 810.496 217.79L807.381 221.353ZM270.191 186.442L267.527 182.506C275.124 176.993 282.995 171.663 290.921 166.663L293.336 170.769C285.495 175.716 277.707 180.989 270.191 186.442ZM764.078 185.677C756.52 180.23 748.708 174.974 740.857 170.055L743.26 165.943C751.195 170.913 759.093 176.225 766.73 181.731L764.078 185.677ZM317.393 156.665L315.237 152.407C323.445 147.95 331.905 143.708 340.38 139.8L342.268 144.192C333.883 148.058 325.514 152.255 317.393 156.665ZM716.712 156.006C708.559 151.612 700.158 147.434 691.739 143.589L693.614 139.19C702.122 143.076 710.615 147.299 718.857 151.741L716.712 156.006ZM367.856 133.408L366.245 128.899C374.95 125.564 383.876 122.48 392.776 119.732L394.102 124.34C385.297 127.057 376.467 130.109 367.856 133.408ZM666.038 132.863C657.409 129.594 648.568 126.575 639.761 123.892L641.071 119.279C649.973 121.992 658.911 125.043 667.634 128.349L666.038 132.863ZM420.858 117.046L419.822 112.36C428.854 110.217 438.089 108.35 447.269 106.806L448.012 111.553C438.93 113.079 429.794 114.926 420.858 117.046ZM612.979 116.696C604.027 114.607 594.884 112.792 585.805 111.302L586.533 106.553C595.709 108.06 604.951 109.894 613.999 112.006L612.979 116.696ZM475.451 107.873L475.002 103.089C484.22 102.163 493.608 101.531 502.906 101.21L503.06 106.015C493.86 106.332 484.571 106.958 475.451 107.873ZM558.354 107.724C549.22 106.84 539.928 106.249 530.739 105.966L530.877 101.161C540.164 101.447 549.554 102.045 558.785 102.938L558.354 107.724Z" fill="#D0CDE1"/>
<path d="M501.41 225.953C561.666 225.953 610.514 175.372 610.514 112.977C610.514 50.5813 561.666 0 501.41 0C441.154 0 392.307 50.5813 392.307 112.977C392.307 175.372 441.154 225.953 501.41 225.953Z" fill="#E0E1DD"/>
<path d="M923.896 533.634C984.153 533.634 1033 483.052 1033 420.657C1033 358.262 984.153 307.681 923.896 307.681C863.64 307.681 814.793 358.262 814.793 420.657C814.793 483.052 863.64 533.634 923.896 533.634Z" fill="#E0E1DD"/>
<path d="M791.58 1004.77C851.836 1004.77 900.684 954.189 900.684 891.793C900.684 829.398 851.836 778.817 791.58 778.817C731.324 778.817 682.477 829.398 682.477 891.793C682.477 954.189 731.324 1004.77 791.58 1004.77Z" fill="#E0E1DD"/>
<path d="M266.957 1024C327.213 1024 376.061 973.419 376.061 911.023C376.061 848.628 327.213 798.047 266.957 798.047C206.701 798.047 157.854 848.628 157.854 911.023C157.854 973.419 206.701 1024 266.957 1024Z" fill="#E0E1DD"/>
<path d="M109.104 533.634C169.36 533.634 218.207 483.053 218.207 420.657C218.207 358.262 169.36 307.681 109.104 307.681C48.8473 307.681 0 358.262 0 420.657C0 483.053 48.8473 533.634 109.104 533.634Z" fill="#E0E1DD"/>
<path d="M548.166 103.969H510.11C506.65 103.969 503.331 102.546 500.884 100.012C498.437 97.4783 497.063 94.0418 497.063 90.4584V51.0516C497.063 50.9038 497.035 50.7574 496.98 50.6208C496.925 50.4842 496.845 50.3601 496.744 50.2555C496.643 50.151 496.523 50.068 496.391 50.0114C496.26 49.9549 496.118 49.9258 495.975 49.9258H470.967C466.353 49.9258 461.928 51.8237 458.666 55.2021C455.403 58.5804 453.57 63.1625 453.57 67.9403V158.013C453.57 162.791 455.403 167.373 458.666 170.751C461.928 174.129 466.353 176.027 470.967 176.027H531.857C536.471 176.027 540.896 174.129 544.158 170.751C547.421 167.373 549.254 162.791 549.254 158.013V105.095C549.254 104.947 549.226 104.801 549.171 104.664C549.116 104.528 549.036 104.404 548.935 104.299C548.834 104.194 548.714 104.112 548.582 104.055C548.45 103.998 548.309 103.969 548.166 103.969ZM523.158 149.006H479.666C478.512 149.006 477.406 148.531 476.59 147.686C475.775 146.842 475.316 145.696 475.316 144.502C475.316 143.307 475.775 142.162 476.59 141.317C477.406 140.473 478.512 139.998 479.666 139.998H523.158C524.312 139.998 525.418 140.473 526.233 141.317C527.049 142.162 527.507 143.307 527.507 144.502C527.507 145.696 527.049 146.842 526.233 147.686C525.418 148.531 524.312 149.006 523.158 149.006ZM523.158 126.487H479.666C478.512 126.487 477.406 126.013 476.59 125.168C475.775 124.324 475.316 123.178 475.316 121.984C475.316 120.789 475.775 119.644 476.59 118.799C477.406 117.955 478.512 117.48 479.666 117.48H523.158C524.312 117.48 525.418 117.955 526.233 118.799C527.049 119.644 527.507 120.789 527.507 121.984C527.507 123.178 527.049 124.324 526.233 125.168C525.418 126.013 524.312 126.487 523.158 126.487Z" fill="#0D1B2A"/>
<path d="M545.778 94.0022L506.687 53.5229C506.611 53.4447 506.514 53.3914 506.409 53.3699C506.304 53.3484 506.195 53.3596 506.096 53.402C505.997 53.4444 505.912 53.5161 505.852 53.6083C505.792 53.7004 505.76 53.8088 505.76 53.9198V90.4583C505.76 91.6527 506.218 92.7982 507.034 93.6428C507.849 94.4874 508.956 94.9619 510.109 94.9619H545.395C545.502 94.9615 545.607 94.9282 545.696 94.8663C545.785 94.8044 545.854 94.7167 545.895 94.6141C545.936 94.5115 545.947 94.3987 545.926 94.2898C545.905 94.1809 545.854 94.0809 545.778 94.0022Z" fill="#0D1B2A"/>
<path d="M807.363 869.538C806.025 869.539 804.729 870.02 803.696 870.899C802.662 871.778 801.955 873.001 801.695 874.36C801.434 875.719 801.637 877.129 802.268 878.35C802.899 879.571 803.92 880.528 805.156 881.058C806.392 881.587 807.767 881.656 809.047 881.254C810.327 880.851 811.432 880.001 812.175 878.849C812.918 877.697 813.252 876.314 813.12 874.936C812.988 873.557 812.399 872.269 811.453 871.29C810.916 870.734 810.278 870.293 809.576 869.992C808.874 869.692 808.122 869.537 807.363 869.538Z" fill="#0D1B2A"/>
<path d="M839.55 845.595V845.575C839.366 844.744 838.963 843.982 838.383 843.375C837.804 842.769 837.073 842.342 836.272 842.143C829.816 840.512 819.66 842.251 808.406 846.917C797.583 851.273 787.682 857.766 779.251 866.034C776.949 868.405 774.809 870.941 772.849 873.623C768.52 873.313 764.179 874.035 760.161 875.734C747.652 881.434 744.08 896.022 743.129 902.011C742.991 902.862 743.045 903.735 743.286 904.56C743.528 905.386 743.95 906.144 744.52 906.773C745.09 907.403 745.792 907.887 746.573 908.19C747.353 908.492 748.19 908.604 749.019 908.517H749.047L762.982 906.942C762.999 907.126 763.018 907.294 763.034 907.449C763.213 909.207 763.97 910.848 765.178 912.097L771.978 919.143C773.183 920.396 774.767 921.181 776.465 921.366L776.931 921.418L775.414 935.828V935.858C775.341 936.59 775.408 937.33 775.611 938.036C775.814 938.742 776.15 939.399 776.598 939.971C777.047 940.543 777.6 941.017 778.225 941.367C778.851 941.718 779.537 941.937 780.244 942.013C780.411 942.031 780.578 942.04 780.746 942.042C781.047 942.043 781.348 942.017 781.645 941.966C787.462 940.997 801.543 937.343 807.033 924.32C808.66 920.174 809.359 915.7 809.08 911.233C811.681 909.208 814.139 906.993 816.435 904.604C824.414 895.957 830.691 885.784 834.916 874.652C839.398 863.131 841.086 852.536 839.55 845.595ZM816.357 884.826C814.577 886.67 812.309 887.927 809.84 888.437C807.37 888.947 804.81 888.687 802.483 887.691C800.156 886.694 798.167 885.006 796.767 882.838C795.367 880.671 794.619 878.122 794.618 875.515C794.616 872.907 795.362 870.358 796.76 868.189C798.157 866.021 800.145 864.33 802.471 863.331C804.797 862.332 807.357 862.069 809.827 862.576C812.297 863.084 814.566 864.338 816.347 866.181L816.357 866.191C818.743 868.625 820.098 871.941 820.123 875.409C820.149 878.878 818.842 882.214 816.492 884.685L816.357 884.826Z" fill="#0D1B2A"/>
<path d="M771.202 921.054C770.364 920.946 769.516 921.159 768.819 921.653C767.435 922.633 766.044 923.603 764.64 924.547C764.031 924.953 763.307 925.135 762.586 925.064C761.864 924.993 761.187 924.673 760.662 924.156C760.137 923.638 759.796 922.953 759.692 922.21C759.588 921.468 759.729 920.71 760.091 920.06L762.723 915.349C763.099 914.779 763.309 914.109 763.326 913.419C763.344 912.729 763.169 912.048 762.822 911.458C762.476 910.868 761.972 910.394 761.372 910.093C760.772 909.793 760.1 909.677 759.439 909.762C756.517 910.144 753.802 911.522 751.72 913.678C750.927 914.502 748.516 917.001 747.218 926.523C746.849 929.258 746.616 932.012 746.521 934.772C746.509 935.243 746.587 935.712 746.75 936.152C746.914 936.592 747.159 936.994 747.473 937.336C747.786 937.678 748.162 937.952 748.577 938.143C748.993 938.335 749.442 938.44 749.897 938.452C749.927 938.453 749.957 938.453 749.987 938.453H750.073C752.741 938.355 755.402 938.115 758.046 937.735C767.246 936.389 769.659 933.89 770.452 933.069C772.544 930.912 773.872 928.087 774.22 925.052C774.331 924.107 774.076 923.156 773.51 922.406C772.944 921.657 772.114 921.17 771.202 921.054Z" fill="#0D1B2A"/>
<path d="M229.408 972.415H221.503C219.931 972.415 218.423 971.768 217.311 970.617C216.199 969.465 215.574 967.904 215.574 966.276V929.441C215.574 927.813 216.199 926.251 217.311 925.1C218.423 923.948 219.931 923.302 221.503 923.302H229.408C230.98 923.302 232.488 923.948 233.6 925.1C234.712 926.251 235.337 927.813 235.337 929.441V966.276C235.337 967.904 234.712 969.465 233.6 970.617C232.488 971.768 230.98 972.415 229.408 972.415Z" fill="#0D1B2A"/>
<path d="M284.744 972.415H276.839C275.267 972.415 273.758 971.768 272.647 970.617C271.535 969.466 270.91 967.904 270.91 966.276V904.884C270.91 903.256 271.535 901.695 272.647 900.543C273.758 899.392 275.267 898.745 276.839 898.745H284.744C286.316 898.745 287.824 899.392 288.936 900.543C290.048 901.695 290.673 903.256 290.673 904.884V966.276C290.673 967.904 290.048 969.466 288.936 970.617C287.824 971.768 286.316 972.415 284.744 972.415Z" fill="#0D1B2A"/>
<path d="M312.408 972.415H304.503C302.931 972.415 301.423 971.768 300.311 970.617C299.199 969.466 298.574 967.904 298.574 966.276V876.235C298.574 874.607 299.199 873.045 300.311 871.894C301.423 870.743 302.931 870.096 304.503 870.096H312.408C313.98 870.096 315.488 870.743 316.6 871.894C317.712 873.045 318.337 874.607 318.337 876.235V966.276C318.337 967.904 317.712 969.466 316.6 970.617C315.488 971.768 313.98 972.415 312.408 972.415Z" fill="#0D1B2A"/>
<path d="M257.076 972.415H249.171C247.598 972.415 246.091 971.768 244.979 970.617C243.867 969.466 243.242 967.904 243.242 966.276V855.771C243.242 854.143 243.867 852.581 244.979 851.43C246.091 850.279 247.598 849.632 249.171 849.632H257.076C258.648 849.632 260.156 850.279 261.268 851.43C262.38 852.581 263.005 854.143 263.005 855.771V966.276C263.005 967.082 262.851 967.88 262.553 968.625C262.255 969.37 261.819 970.047 261.268 970.617C260.717 971.187 260.064 971.639 259.345 971.948C258.625 972.256 257.854 972.415 257.076 972.415Z" fill="#0D1B2A"/>
<path d="M929.123 417.699L923.475 411.848C922.182 410.508 920.428 409.753 918.599 409.748C916.769 409.743 915.012 410.489 913.711 411.821L874.446 449.345C873.005 450.666 872.123 452.521 871.991 454.51C871.949 455.497 872.105 456.483 872.448 457.406C872.79 458.328 873.313 459.168 873.983 459.872L882.419 468.703L882.434 468.719C883.738 470.064 885.501 470.823 887.342 470.829H887.597C888.551 470.773 889.484 470.524 890.344 470.094C891.204 469.665 891.974 469.065 892.609 468.327L929.099 427.854C930.403 426.515 931.139 424.696 931.147 422.795C931.155 420.894 930.434 419.068 929.141 417.718L929.123 417.699Z" fill="#0D1B2A"/>
<path d="M974.516 405.875L974.449 405.805L967.036 398.208C966.602 397.76 966.086 397.405 965.519 397.164C964.952 396.924 964.344 396.802 963.731 396.806C962.738 396.807 961.77 397.131 960.965 397.733C960.965 397.637 960.978 397.543 960.984 397.46C961.283 395.498 960.884 393.49 959.859 391.811C958.226 389.532 956.433 387.38 954.495 385.374L954.478 385.356C949.059 379.972 942.691 375.718 935.72 372.826C932.077 371.278 928.177 370.483 924.239 370.486C919.141 370.438 914.188 372.234 910.233 375.565C909.108 376.679 908.081 377.895 907.166 379.198C906.729 379.823 906.498 380.577 906.508 381.349C906.518 382.121 906.768 382.868 907.222 383.481C907.675 384.093 908.307 384.538 909.023 384.748C909.74 384.959 910.504 384.925 911.2 384.65C911.807 384.415 912.426 384.219 913.056 384.061C914.367 383.774 915.711 383.687 917.047 383.803C919.815 384.103 922.468 385.11 924.767 386.735C926.055 387.859 927.08 389.272 927.765 390.866C928.449 392.46 928.774 394.195 928.716 395.939C927.756 398.772 926.288 401.392 924.39 403.662C923.884 404.352 923.637 405.209 923.695 406.074C923.752 406.939 924.111 407.753 924.704 408.365L932.147 416.072C932.772 416.721 933.614 417.098 934.499 417.124C935.384 417.149 936.246 416.823 936.905 416.211C939.01 414.265 942.215 411.331 943.336 410.612C944.294 409.948 945.378 409.505 946.516 409.313C947.363 409.226 948.216 409.413 948.958 409.846C948.961 409.884 948.957 409.923 948.946 409.959C948.934 409.996 948.915 410.03 948.891 410.058L948.497 410.446L948.432 410.509C947.557 411.411 947.065 412.636 947.062 413.914C947.06 415.193 947.548 416.42 948.42 417.325L948.443 417.349L955.853 424.944C956.288 425.392 956.803 425.746 957.371 425.986C957.938 426.227 958.545 426.348 959.158 426.344C960.389 426.346 961.571 425.847 962.451 424.955L974.455 412.677C974.496 412.634 974.537 412.589 974.576 412.545C975.382 411.63 975.823 410.435 975.812 409.197C975.801 407.96 975.338 406.773 974.516 405.875Z" fill="#0D1B2A"/>
<path d="M126.426 413.931C125.57 413.931 124.732 413.667 124.02 413.175C123.308 412.682 122.753 411.982 122.425 411.162C122.098 410.343 122.012 409.441 122.179 408.571C122.346 407.701 122.758 406.902 123.364 406.275L133.294 395.993L123.364 385.71C122.552 384.869 122.096 383.729 122.096 382.54C122.096 381.35 122.552 380.21 123.364 379.369C124.176 378.528 125.278 378.055 126.426 378.055C127.575 378.055 128.676 378.528 129.488 379.369L142.481 392.822C142.883 393.238 143.202 393.733 143.419 394.277C143.637 394.821 143.749 395.404 143.749 395.993C143.749 396.582 143.637 397.165 143.419 397.709C143.202 398.253 142.883 398.747 142.481 399.164L129.488 412.617C129.087 413.034 128.609 413.365 128.084 413.59C127.558 413.816 126.995 413.931 126.426 413.931Z" fill="#0D1B2A"/>
<path d="M57.1334 427.384C56.5647 427.384 56.0016 427.268 55.4761 427.043C54.9507 426.817 54.4733 426.487 54.0711 426.07C53.669 425.654 53.35 425.16 53.1324 424.616C52.9147 424.072 52.8027 423.488 52.8027 422.899V418.415C52.8367 411.292 55.5835 404.471 60.4463 399.433C65.3092 394.395 71.8953 391.547 78.774 391.508H135.086C136.234 391.508 137.336 391.981 138.148 392.822C138.96 393.663 139.417 394.804 139.417 395.993C139.417 397.182 138.96 398.323 138.148 399.164C137.336 400.005 136.234 400.477 135.086 400.477H78.7869C74.1988 400.505 69.8065 402.406 66.5633 405.767C63.3202 409.128 61.4879 413.677 61.4641 418.428V422.899C61.4641 423.488 61.3521 424.071 61.1345 424.616C60.9169 425.16 60.5979 425.654 60.1957 426.07C59.7936 426.487 59.3162 426.817 58.7908 427.043C58.2653 427.268 57.7022 427.384 57.1334 427.384Z" fill="#0D1B2A"/>
<path d="M91.7799 463.259C91.2111 463.26 90.6477 463.144 90.1222 462.919C89.5967 462.694 89.1194 462.363 88.7177 461.946L75.7256 448.492C75.3234 448.076 75.0044 447.582 74.7867 447.038C74.5691 446.494 74.457 445.91 74.457 445.322C74.457 444.733 74.5691 444.15 74.7867 443.605C75.0044 443.061 75.3234 442.567 75.7256 442.151L88.7177 428.697C89.5301 427.858 90.6312 427.386 91.779 427.387C92.9269 427.387 94.0276 427.86 94.8393 428.7C95.6509 429.541 96.1071 430.681 96.1076 431.869C96.1082 433.058 95.6529 434.198 94.842 435.039L84.9125 445.322L94.842 455.604C95.4477 456.231 95.8601 457.03 96.0272 457.9C96.1943 458.77 96.1085 459.671 95.7808 460.491C95.453 461.31 94.898 462.011 94.1858 462.503C93.4737 462.996 92.6364 463.259 91.7799 463.259Z" fill="#0D1B2A"/>
<path d="M83.1197 449.806C81.9711 449.806 80.8697 449.333 80.0575 448.492C79.2453 447.651 78.7891 446.511 78.7891 445.321C78.7891 444.132 79.2453 442.991 80.0575 442.151C80.8697 441.31 81.9711 440.837 83.1197 440.837H139.419C144.007 440.809 148.399 438.908 151.642 435.547C154.885 432.187 156.718 427.637 156.741 422.886V418.415C156.741 417.226 157.198 416.085 158.01 415.244C158.822 414.403 159.923 413.931 161.072 413.931C162.221 413.931 163.322 414.403 164.134 415.244C164.947 416.085 165.403 417.226 165.403 418.415V422.899C165.369 430.022 162.622 436.844 157.759 441.882C152.896 446.92 146.31 449.767 139.431 449.806L83.1197 449.806Z" fill="#0D1B2A"/>
</svg>
