<svg width="155" height="491" viewBox="0 0 155 491" fill="none" xmlns="http://www.w3.org/2000/svg">
<path d="M154.289 471.597C154.519 495.285 2.88855 497.455 0.000260821 471.599C-0.229489 447.913 151.401 445.743 154.289 471.597Z" fill="#E6E6E6"/>
<path d="M35.654 389.367L24.3848 395.417L31.5562 418.612L42.8244 419.62L48.9716 406.51L35.654 389.367Z" fill="#9F616A"/>
<path d="M70.4844 435.756V446.848L87.8998 445.84L87.6572 436.704L70.4844 435.756Z" fill="#9F616A"/>
<path d="M31.5566 256.247L37.7028 331.884L57.1677 442.815L87.9008 438.781L77.6567 351.044L81.7546 270.367L31.5566 256.247Z" fill="#2F2E41"/>
<path d="M113.512 199.774L39.7522 200.782L31.5566 256.248L81.7546 279.443L94.0479 323.816L31.5567 389.366L56.1434 419.621C56.1434 419.621 90.9747 373.231 116.586 347.011C142.197 320.79 129.904 241.121 129.904 241.121L113.512 199.774Z" fill="#2F2E41"/>
<path d="M69.4617 56.5707C81.909 56.5707 91.9995 46.6376 91.9995 34.3844C91.9995 22.1312 81.909 12.198 69.4617 12.198C57.0144 12.198 46.9238 22.1312 46.9238 34.3844C46.9238 46.6376 57.0144 56.5707 69.4617 56.5707Z" fill="#9F616A"/>
<path d="M61.2656 49.5114V71.6978L76.6323 95.9011C76.6323 95.9011 100.195 78.7571 95.0724 74.7232C89.9501 70.6893 88.9257 39.4267 88.9257 39.4267L61.2656 49.5114Z" fill="#9F616A"/>
<path d="M61.2655 67.664L45.8984 85.8161L52.0457 211.875L100.194 210.866L108.39 100.944L98.1458 72.7061L91.1185 63.2943L78.681 81.7822L61.2655 67.664Z" fill="#D0CDE1"/>
<path d="M36.6789 133.215L25.41 175.57L36.6789 217.926L18.2389 242.13L1.84766 165.486C1.84766 165.486 14.1411 102.961 15.1655 95.9012C16.1899 88.8418 18.2389 87.8334 18.2389 87.8334L26.4345 88.8418L36.6789 133.215Z" fill="#2F2E41"/>
<path d="M118.633 149.349L125.804 162.46L127.854 184.646L123.756 209.858L138.098 233.053L152.44 169.519L137.073 87.8326H130.926L118.633 149.349Z" fill="#2F2E41"/>
<path d="M31.5569 388.358C31.5569 388.358 17.2147 392.392 12.0924 393.4C6.97011 394.409 15.1658 413.57 15.1658 413.57C15.1658 413.57 20.288 439.79 21.3124 444.832C22.3369 449.875 29.508 467.019 38.728 469.036C47.948 471.053 41.8014 433.739 41.8014 433.739C41.8014 433.739 45.8992 421.638 45.8992 417.604C45.8992 413.57 39.7525 415.587 39.7525 415.587C23.3614 413.57 31.5569 388.358 31.5569 388.358Z" fill="#2F2E41"/>
<path d="M65.364 466.01C66.3884 472.061 64.3395 472.061 80.7307 474.078C97.1219 476.095 93.0241 462.985 93.0241 462.985C92.3388 456.804 90.9646 450.717 88.9263 444.832C85.8529 436.765 69.4618 446.849 69.4618 446.849C69.4618 446.849 64.3395 459.959 65.364 466.01Z" fill="#2F2E41"/>
<path d="M88.953 40.131L89.4869 49.0998C89.4869 49.0998 96.0974 34.3844 97.1219 19.2573C98.1463 4.13023 80.7307 1.10481 70.4862 0.0963419C60.2418 -0.912126 42.8262 6.14716 42.8262 14.215C42.8262 22.2827 61.2662 20.2658 68.4373 18.2488C75.6085 16.2319 78.6818 33.3759 78.6818 33.3759L82.7796 34.3844L88.953 40.131Z" fill="#2F2E41"/>
<path d="M55.2188 74.8055L61.2655 67.664L78.6809 81.7822L61.2655 93.8839L55.2188 74.8055Z" fill="#D0CDE1"/>
<path d="M98.1465 72.7061L90.9751 63.6301L78.6816 81.7822L94.0487 92.8757L98.1465 72.7061Z" fill="#D0CDE1"/>
<path d="M33.6059 147.333L37.7037 185.655L29.5082 208.85L24.3859 231.036C24.3859 231.036 24.386 252.214 44.8749 253.223C65.3638 254.231 82.7794 189.689 82.7794 189.689C82.7794 189.689 85.8527 203.808 87.9016 211.875C89.9505 219.943 124.782 252.214 124.782 252.214C124.782 252.214 132.977 251.206 140.148 235.07C147.32 218.935 125.806 203.808 125.806 203.808L119.659 182.63L121.708 156.409L136.051 87.8334L93.5361 66.1512L98.1461 124.138L82.7794 169.52L59.7294 69.1766L52.046 74.7232L19.2637 87.8334L33.6059 147.333Z" fill="#2F2E41"/>
</svg>
