<svg width="540" height="145" viewBox="0 0 540 145" fill="none" xmlns="http://www.w3.org/2000/svg">
<g filter="url(#filter0_d_205_4)">
<mask id="path-1-inside-1_205_4" fill="white">
<path d="M68.8325 54.7661C67.7743 54.448 67.3067 53.2674 67.6722 52.2246C68.6463 49.4451 69.1333 46.7436 69.1333 44.12C69.1333 40.9129 68.9893 38.4225 68.7012 36.6487C68.398 34.8571 67.9128 33.2804 67.2457 31.9188C65.7901 28.9267 63.6068 27.4306 60.6957 27.4306C57.1023 27.4306 53.85 28.9804 50.9389 32.08C47.8307 35.2871 46.2766 39.4169 46.2766 44.4694C46.2766 47.6765 47.2242 50.5163 49.1194 52.9888C51.0147 55.4433 53.4179 57.8173 56.329 60.1106C59.2401 62.404 62.3407 64.6973 65.6309 66.9906C68.9362 69.284 72.0444 71.8102 74.9556 74.5694C81.642 80.876 84.9852 88.2667 84.9852 96.7413C84.9852 102.475 83.7041 107.778 81.1417 112.651C78.5641 117.525 75.1451 121.744 70.8846 125.309C61.5599 133.103 50.7342 137 38.4075 137C28.4157 137 20.8498 135.083 15.7099 131.249C10.57 127.397 8 122.55 8 116.709C8 106.264 11.4418 99.7244 18.3253 97.0906C20.2661 96.2844 22.7148 95.8813 25.6714 95.8813C28.1477 95.8813 30.7715 96.4038 33.5427 97.4489C34.5068 97.8124 34.9708 98.8838 34.6793 99.872C33.4804 103.936 32.8809 107.829 32.8809 111.549C32.8809 120.723 35.648 125.309 41.1821 125.309C44.7755 125.309 48.0505 123.76 51.0071 120.66C53.9637 117.56 55.442 114.264 55.442 110.77C55.442 107.276 54.4944 104.266 52.5991 101.74C50.719 99.2138 48.3689 96.9473 45.5488 94.9406C42.7286 92.934 39.6962 90.9542 36.4516 89.0013C33.2069 87.0663 30.1745 84.7192 27.3543 81.96C20.7589 75.6533 17.4611 67.4565 17.4611 57.3694C17.4611 50.8298 18.8181 45.0069 21.5321 39.9006C24.2461 34.7944 27.7865 30.5213 32.1531 27.0813C40.8865 20.0938 50.6129 16.6 61.3325 16.6C72.0672 16.6 80.0273 18.4902 85.2127 22.2706C90.3981 26.051 92.9908 31.1573 92.9908 37.5894C92.9908 43.1973 91.1486 47.784 87.4642 51.3494C84.265 54.3235 80.7247 55.8106 76.8432 55.8106C73.8185 55.8106 71.1483 55.4625 68.8325 54.7661ZM169.271 114.479C169.271 118.815 170.89 121.835 174.129 123.54C175.05 124.024 175.641 125.044 175.272 126.017C173.981 129.419 171.54 132.104 167.952 134.071C164.465 136.024 160.803 137 156.967 137C153.131 137 150.22 136.4 148.234 135.199C146.247 133.999 144.724 132.422 143.662 130.469C141.904 127.477 141.024 123.177 141.024 117.569C141.024 114.237 141.805 107.984 143.367 98.8106L145.391 85.7494C147.043 75.7698 147.87 68.9435 147.87 65.2706C147.87 58.8565 146.369 55.6494 143.367 55.6494C139.576 55.6494 136.468 58.9192 134.042 65.4588C133.072 67.9671 132.245 71.1204 131.563 74.9188L121.919 132.082C121.771 132.958 121.063 133.631 120.181 133.735L95.0636 136.689C93.7415 136.845 92.6393 135.689 92.8569 134.376L112.691 14.6439C112.836 13.765 113.546 13.0884 114.43 12.9844L139.549 10.0324C140.876 9.87641 141.98 11.0406 141.753 12.3575L141.024 16.6C139.527 26.3456 138.09 34.3082 136.712 40.4878C136.221 42.6925 140.942 45.8302 143.016 44.9368C146.943 43.2456 151.472 42.4 156.603 42.4C167.186 42.4 173.448 46.5298 175.389 54.7894C176.071 57.4231 176.412 59.8867 176.412 62.18C176.412 64.4733 176.337 66.5069 176.185 68.2806C176.033 70.0544 175.715 72.5538 175.23 75.7788L173.342 88.1413L169.999 107.599C169.514 110.233 169.271 112.526 169.271 114.479ZM220.01 123.383C221.159 124.05 222.103 125.352 221.535 126.552C218.238 133.517 212.264 137 203.613 137C198.67 137 194.645 134.993 191.536 130.98C188.913 127.433 187.602 123.876 187.602 120.311C187.602 111.03 189.399 97.3325 192.992 79.2188L198.141 47.3329C198.284 46.4496 198.996 45.7686 199.884 45.6651L225.293 42.7065C226.613 42.5529 227.712 43.7043 227.498 45.0152L219.056 96.7413C217.403 105.234 216.577 110.967 216.577 113.941C216.577 118.906 217.721 122.053 220.01 123.383ZM200.998 21.9213C200.998 17.46 202.574 14.02 205.728 11.6013C208.882 9.20042 212.741 8 217.304 8C221.868 8 225.53 9.20042 228.289 11.6013C231.064 14.02 232.451 17.46 232.451 21.9213C232.451 26.4004 230.92 29.7867 227.857 32.08C224.794 34.3733 220.989 35.52 216.44 35.52C211.876 35.52 208.162 34.3733 205.296 32.08C202.43 29.7867 200.998 26.4004 200.998 21.9213ZM287.928 49.6744C287.84 49.0969 287.96 48.4965 288.334 48.0479C291.475 44.2826 295.651 42.4 300.862 42.4C304.259 42.4 307.261 43.4929 309.869 45.6788C312.492 47.8467 313.803 50.9642 313.803 55.0313C313.803 59.1163 313.272 63.3356 312.211 67.6894C311.135 72.0431 309.778 76.4596 308.14 80.9388C304.835 89.6463 300.9 97.6102 296.336 104.831C289.938 115.276 283.653 123.249 277.482 128.749C271.327 134.25 264.898 137 258.196 137C253.384 137 249.405 136.415 246.261 135.246C245.54 134.978 245.085 134.274 245.066 133.505C244.497 110.116 243.855 94.1979 243.14 85.7494C242.413 77.1494 241.761 70.4933 241.185 65.7813C240.401 58.3722 238.984 53.2481 236.934 50.4089C236.227 49.4292 236.105 47.9936 237.008 47.191C238.679 45.7067 240.336 44.5935 241.981 43.8513C244.164 42.8838 247.507 42.4 252.01 42.4C256.529 42.4 260.387 44.4963 263.586 48.6888C266.786 52.8633 268.704 58.6504 269.34 66.05C269.977 73.4496 270.296 81.6196 270.296 90.56C270.296 98.2128 270.079 106.542 269.646 115.547C269.562 117.294 271.455 118.149 272.48 116.731C274.524 113.902 276.609 109.935 278.733 104.831C283.1 94.1702 286.057 82.4169 287.603 69.5706C288.088 65.6827 288.331 61.6694 288.331 57.5306C288.331 54.0608 288.197 51.4421 287.928 49.6744ZM324.06 128.4C321.786 125.426 320.141 121.583 319.125 116.871C318.109 112.176 317.601 105.986 317.601 98.3C317.601 90.6138 318.716 83.2769 320.944 76.2894C323.173 69.284 326.327 63.264 330.406 58.2294C338.745 47.6765 349.805 42.4 363.588 42.4C368.275 42.4 372.356 43.2782 375.83 45.0345C376.198 45.221 376.612 45.3035 377.023 45.2552L398.667 42.7092C399.986 42.5541 401.086 43.7024 400.876 45.0128L390.515 109.48C390.227 110.86 390.083 112.813 390.083 115.339C390.083 117.847 390.735 119.908 392.039 121.52C392.827 122.483 393.725 123.196 394.734 123.661C395.833 124.167 396.68 125.313 396.223 126.433C395.038 129.334 393.015 131.709 390.152 133.56C386.604 135.853 382.843 137 378.871 137C374.899 137 371.578 136.113 368.91 134.339C367.752 133.57 366.772 132.686 365.968 131.688C364.83 130.275 361.967 129.938 360.657 131.193C359.463 132.336 358.059 133.358 356.446 134.259C353.156 136.086 349.305 137 344.893 137C340.466 137 336.463 136.31 332.885 134.931C329.291 133.551 326.35 131.374 324.06 128.4ZM354.786 58.5788C353.664 60.6392 352.618 63.4163 351.648 66.91C350.677 70.4038 349.396 76.8269 347.804 86.1794C346.197 95.514 345.393 103.514 345.393 110.179C345.393 116.826 345.833 121.126 346.712 123.079C347.577 125.014 348.79 125.981 350.351 125.981C353.444 125.981 356.136 124.234 358.425 120.741C360.699 117.247 362.276 112.4 363.156 106.201L370.714 56.8027C370.809 56.1784 370.611 55.5377 370.136 55.1215C368.308 53.5205 366.346 52.72 364.247 52.72C361.867 52.72 359.972 53.1769 358.561 54.0906C357.151 55.0044 355.893 56.5004 354.786 58.5788ZM513.942 137C502.207 137 496.339 131.607 496.339 120.821C496.339 116.127 497.188 109.22 498.886 100.101C500.584 90.981 501.721 84.5938 502.298 80.9388C503.662 72.5538 504.344 67.0444 504.344 64.4106C504.344 58.5698 502.502 55.6494 498.818 55.6494C496.392 55.6494 494.012 57.6292 491.677 61.5888C489.342 65.5304 487.643 71.4608 486.582 79.38L477.799 132.083C477.653 132.959 476.948 133.633 476.067 133.74L451.827 136.678C450.5 136.839 449.392 135.679 449.614 134.361L457.039 90.2106C457.903 85.0506 458.729 79.5502 459.518 73.7094C460.291 67.8506 460.678 64.4644 460.678 63.5506C460.678 58.2831 459.025 55.6494 455.72 55.6494C453.491 55.6494 451.164 57.5933 448.738 61.4813C446.312 65.3871 444.416 71.3533 443.052 79.38L434.425 132.076C434.281 132.955 433.574 133.633 432.689 133.739L408.155 136.682C406.83 136.841 405.724 135.682 405.945 134.365L420.545 47.2792C420.689 46.4217 421.37 45.7554 422.231 45.6306L442.049 42.7565C443.278 42.5783 444.333 43.6302 444.159 44.8596V44.8596C443.852 47.032 449.045 49.0596 450.806 47.7514C451.45 47.273 452.118 46.833 452.809 46.4313C457.463 43.7438 463.43 42.4 470.707 42.4C474.892 42.4 478.342 43.6004 481.056 46.0012C482.241 47.0581 483.252 48.2553 484.088 49.5927C485.124 51.2518 488.504 51.5626 489.825 50.1195C491.301 48.5069 493.108 47.1073 495.247 45.9206C499.462 43.5735 504.17 42.4 509.371 42.4C514.556 42.4 518.438 43.0629 521.015 44.3888C523.577 45.6967 525.64 47.4435 527.201 49.6294C529.809 53.6427 531.113 59.3133 531.113 66.6413C531.113 73.8796 529.809 85.0058 527.201 100.02C525.837 107.366 525.154 112.383 525.154 115.07C525.154 117.758 525.806 119.908 527.11 121.52C527.898 122.483 528.796 123.196 529.805 123.661C530.904 124.167 531.751 125.312 531.304 126.437C530.149 129.336 528.221 131.71 525.518 133.56C522.167 135.853 518.309 137 513.942 137Z"/>
</mask>
<path d="M68.8325 54.7661C67.7743 54.448 67.3067 53.2674 67.6722 52.2246C68.6463 49.4451 69.1333 46.7436 69.1333 44.12C69.1333 40.9129 68.9893 38.4225 68.7012 36.6487C68.398 34.8571 67.9128 33.2804 67.2457 31.9188C65.7901 28.9267 63.6068 27.4306 60.6957 27.4306C57.1023 27.4306 53.85 28.9804 50.9389 32.08C47.8307 35.2871 46.2766 39.4169 46.2766 44.4694C46.2766 47.6765 47.2242 50.5163 49.1194 52.9888C51.0147 55.4433 53.4179 57.8173 56.329 60.1106C59.2401 62.404 62.3407 64.6973 65.6309 66.9906C68.9362 69.284 72.0444 71.8102 74.9556 74.5694C81.642 80.876 84.9852 88.2667 84.9852 96.7413C84.9852 102.475 83.7041 107.778 81.1417 112.651C78.5641 117.525 75.1451 121.744 70.8846 125.309C61.5599 133.103 50.7342 137 38.4075 137C28.4157 137 20.8498 135.083 15.7099 131.249C10.57 127.397 8 122.55 8 116.709C8 106.264 11.4418 99.7244 18.3253 97.0906C20.2661 96.2844 22.7148 95.8813 25.6714 95.8813C28.1477 95.8813 30.7715 96.4038 33.5427 97.4489C34.5068 97.8124 34.9708 98.8838 34.6793 99.872C33.4804 103.936 32.8809 107.829 32.8809 111.549C32.8809 120.723 35.648 125.309 41.1821 125.309C44.7755 125.309 48.0505 123.76 51.0071 120.66C53.9637 117.56 55.442 114.264 55.442 110.77C55.442 107.276 54.4944 104.266 52.5991 101.74C50.719 99.2138 48.3689 96.9473 45.5488 94.9406C42.7286 92.934 39.6962 90.9542 36.4516 89.0013C33.2069 87.0663 30.1745 84.7192 27.3543 81.96C20.7589 75.6533 17.4611 67.4565 17.4611 57.3694C17.4611 50.8298 18.8181 45.0069 21.5321 39.9006C24.2461 34.7944 27.7865 30.5213 32.1531 27.0813C40.8865 20.0938 50.6129 16.6 61.3325 16.6C72.0672 16.6 80.0273 18.4902 85.2127 22.2706C90.3981 26.051 92.9908 31.1573 92.9908 37.5894C92.9908 43.1973 91.1486 47.784 87.4642 51.3494C84.265 54.3235 80.7247 55.8106 76.8432 55.8106C73.8185 55.8106 71.1483 55.4625 68.8325 54.7661ZM169.271 114.479C169.271 118.815 170.89 121.835 174.129 123.54C175.05 124.024 175.641 125.044 175.272 126.017C173.981 129.419 171.54 132.104 167.952 134.071C164.465 136.024 160.803 137 156.967 137C153.131 137 150.22 136.4 148.234 135.199C146.247 133.999 144.724 132.422 143.662 130.469C141.904 127.477 141.024 123.177 141.024 117.569C141.024 114.237 141.805 107.984 143.367 98.8106L145.391 85.7494C147.043 75.7698 147.87 68.9435 147.87 65.2706C147.87 58.8565 146.369 55.6494 143.367 55.6494C139.576 55.6494 136.468 58.9192 134.042 65.4588C133.072 67.9671 132.245 71.1204 131.563 74.9188L121.919 132.082C121.771 132.958 121.063 133.631 120.181 133.735L95.0636 136.689C93.7415 136.845 92.6393 135.689 92.8569 134.376L112.691 14.6439C112.836 13.765 113.546 13.0884 114.43 12.9844L139.549 10.0324C140.876 9.87641 141.98 11.0406 141.753 12.3575L141.024 16.6C139.527 26.3456 138.09 34.3082 136.712 40.4878C136.221 42.6925 140.942 45.8302 143.016 44.9368C146.943 43.2456 151.472 42.4 156.603 42.4C167.186 42.4 173.448 46.5298 175.389 54.7894C176.071 57.4231 176.412 59.8867 176.412 62.18C176.412 64.4733 176.337 66.5069 176.185 68.2806C176.033 70.0544 175.715 72.5538 175.23 75.7788L173.342 88.1413L169.999 107.599C169.514 110.233 169.271 112.526 169.271 114.479ZM220.01 123.383C221.159 124.05 222.103 125.352 221.535 126.552C218.238 133.517 212.264 137 203.613 137C198.67 137 194.645 134.993 191.536 130.98C188.913 127.433 187.602 123.876 187.602 120.311C187.602 111.03 189.399 97.3325 192.992 79.2188L198.141 47.3329C198.284 46.4496 198.996 45.7686 199.884 45.6651L225.293 42.7065C226.613 42.5529 227.712 43.7043 227.498 45.0152L219.056 96.7413C217.403 105.234 216.577 110.967 216.577 113.941C216.577 118.906 217.721 122.053 220.01 123.383ZM200.998 21.9213C200.998 17.46 202.574 14.02 205.728 11.6013C208.882 9.20042 212.741 8 217.304 8C221.868 8 225.53 9.20042 228.289 11.6013C231.064 14.02 232.451 17.46 232.451 21.9213C232.451 26.4004 230.92 29.7867 227.857 32.08C224.794 34.3733 220.989 35.52 216.44 35.52C211.876 35.52 208.162 34.3733 205.296 32.08C202.43 29.7867 200.998 26.4004 200.998 21.9213ZM287.928 49.6744C287.84 49.0969 287.96 48.4965 288.334 48.0479C291.475 44.2826 295.651 42.4 300.862 42.4C304.259 42.4 307.261 43.4929 309.869 45.6788C312.492 47.8467 313.803 50.9642 313.803 55.0313C313.803 59.1163 313.272 63.3356 312.211 67.6894C311.135 72.0431 309.778 76.4596 308.14 80.9388C304.835 89.6463 300.9 97.6102 296.336 104.831C289.938 115.276 283.653 123.249 277.482 128.749C271.327 134.25 264.898 137 258.196 137C253.384 137 249.405 136.415 246.261 135.246C245.54 134.978 245.085 134.274 245.066 133.505C244.497 110.116 243.855 94.1979 243.14 85.7494C242.413 77.1494 241.761 70.4933 241.185 65.7813C240.401 58.3722 238.984 53.2481 236.934 50.4089C236.227 49.4292 236.105 47.9936 237.008 47.191C238.679 45.7067 240.336 44.5935 241.981 43.8513C244.164 42.8838 247.507 42.4 252.01 42.4C256.529 42.4 260.387 44.4963 263.586 48.6888C266.786 52.8633 268.704 58.6504 269.34 66.05C269.977 73.4496 270.296 81.6196 270.296 90.56C270.296 98.2128 270.079 106.542 269.646 115.547C269.562 117.294 271.455 118.149 272.48 116.731C274.524 113.902 276.609 109.935 278.733 104.831C283.1 94.1702 286.057 82.4169 287.603 69.5706C288.088 65.6827 288.331 61.6694 288.331 57.5306C288.331 54.0608 288.197 51.4421 287.928 49.6744ZM324.06 128.4C321.786 125.426 320.141 121.583 319.125 116.871C318.109 112.176 317.601 105.986 317.601 98.3C317.601 90.6138 318.716 83.2769 320.944 76.2894C323.173 69.284 326.327 63.264 330.406 58.2294C338.745 47.6765 349.805 42.4 363.588 42.4C368.275 42.4 372.356 43.2782 375.83 45.0345C376.198 45.221 376.612 45.3035 377.023 45.2552L398.667 42.7092C399.986 42.5541 401.086 43.7024 400.876 45.0128L390.515 109.48C390.227 110.86 390.083 112.813 390.083 115.339C390.083 117.847 390.735 119.908 392.039 121.52C392.827 122.483 393.725 123.196 394.734 123.661C395.833 124.167 396.68 125.313 396.223 126.433C395.038 129.334 393.015 131.709 390.152 133.56C386.604 135.853 382.843 137 378.871 137C374.899 137 371.578 136.113 368.91 134.339C367.752 133.57 366.772 132.686 365.968 131.688C364.83 130.275 361.967 129.938 360.657 131.193C359.463 132.336 358.059 133.358 356.446 134.259C353.156 136.086 349.305 137 344.893 137C340.466 137 336.463 136.31 332.885 134.931C329.291 133.551 326.35 131.374 324.06 128.4ZM354.786 58.5788C353.664 60.6392 352.618 63.4163 351.648 66.91C350.677 70.4038 349.396 76.8269 347.804 86.1794C346.197 95.514 345.393 103.514 345.393 110.179C345.393 116.826 345.833 121.126 346.712 123.079C347.577 125.014 348.79 125.981 350.351 125.981C353.444 125.981 356.136 124.234 358.425 120.741C360.699 117.247 362.276 112.4 363.156 106.201L370.714 56.8027C370.809 56.1784 370.611 55.5377 370.136 55.1215C368.308 53.5205 366.346 52.72 364.247 52.72C361.867 52.72 359.972 53.1769 358.561 54.0906C357.151 55.0044 355.893 56.5004 354.786 58.5788ZM513.942 137C502.207 137 496.339 131.607 496.339 120.821C496.339 116.127 497.188 109.22 498.886 100.101C500.584 90.981 501.721 84.5938 502.298 80.9388C503.662 72.5538 504.344 67.0444 504.344 64.4106C504.344 58.5698 502.502 55.6494 498.818 55.6494C496.392 55.6494 494.012 57.6292 491.677 61.5888C489.342 65.5304 487.643 71.4608 486.582 79.38L477.799 132.083C477.653 132.959 476.948 133.633 476.067 133.74L451.827 136.678C450.5 136.839 449.392 135.679 449.614 134.361L457.039 90.2106C457.903 85.0506 458.729 79.5502 459.518 73.7094C460.291 67.8506 460.678 64.4644 460.678 63.5506C460.678 58.2831 459.025 55.6494 455.72 55.6494C453.491 55.6494 451.164 57.5933 448.738 61.4813C446.312 65.3871 444.416 71.3533 443.052 79.38L434.425 132.076C434.281 132.955 433.574 133.633 432.689 133.739L408.155 136.682C406.83 136.841 405.724 135.682 405.945 134.365L420.545 47.2792C420.689 46.4217 421.37 45.7554 422.231 45.6306L442.049 42.7565C443.278 42.5783 444.333 43.6302 444.159 44.8596V44.8596C443.852 47.032 449.045 49.0596 450.806 47.7514C451.45 47.273 452.118 46.833 452.809 46.4313C457.463 43.7438 463.43 42.4 470.707 42.4C474.892 42.4 478.342 43.6004 481.056 46.0012C482.241 47.0581 483.252 48.2553 484.088 49.5927C485.124 51.2518 488.504 51.5626 489.825 50.1195C491.301 48.5069 493.108 47.1073 495.247 45.9206C499.462 43.5735 504.17 42.4 509.371 42.4C514.556 42.4 518.438 43.0629 521.015 44.3888C523.577 45.6967 525.64 47.4435 527.201 49.6294C529.809 53.6427 531.113 59.3133 531.113 66.6413C531.113 73.8796 529.809 85.0058 527.201 100.02C525.837 107.366 525.154 112.383 525.154 115.07C525.154 117.758 525.806 119.908 527.11 121.52C527.898 122.483 528.796 123.196 529.805 123.661C530.904 124.167 531.751 125.312 531.304 126.437C530.149 129.336 528.221 131.71 525.518 133.56C522.167 135.853 518.309 137 513.942 137Z" stroke="#E0E1DD" stroke-width="10" mask="url(#path-1-inside-1_205_4)"/>
</g>
<defs>
<filter id="filter0_d_205_4" x="0" y="0" width="539.426" height="145" filterUnits="userSpaceOnUse" color-interpolation-filters="sRGB">
<feFlood flood-opacity="0" result="BackgroundImageFix"/>
<feColorMatrix in="SourceAlpha" type="matrix" values="0 0 0 0 0 0 0 0 0 0 0 0 0 0 0 0 0 0 127 0" result="hardAlpha"/>
<feOffset/>
<feGaussianBlur stdDeviation="4"/>
<feColorMatrix type="matrix" values="0 0 0 0 0 0 0 0 0 0 0 0 0 0 0 0 0 0 1 0"/>
<feBlend mode="normal" in2="BackgroundImageFix" result="effect1_dropShadow_205_4"/>
<feBlend mode="normal" in="SourceGraphic" in2="effect1_dropShadow_205_4" result="shape"/>
</filter>
</defs>
</svg>
